<svg width="530" height="143" viewBox="0 0 530 143" fill="none" xmlns="http://www.w3.org/2000/svg">
<path d="M330.75 70.1562C330.75 73.5031 332.128 76.6531 334.294 77.8344C336.065 79.0156 339.215 81.1812 341.381 82.7562C344.925 85.7094 344.728 85.9062 338.822 90.8281C327.6 100.475 327.403 117.8 338.625 127.644C348.862 137.094 366.581 133.747 373.078 121.344C380.559 106.972 375.244 93.9781 357.328 82.5594C352.406 79.6062 348.469 76.6531 348.469 76.0625C348.469 75.4719 354.572 75.275 362.25 75.6687L376.031 76.4562V70.3531V64.25H353.39H330.75V70.1562ZM362.25 101.066C367.172 107.366 366.187 114.65 359.887 119.769C354.572 124.494 351.225 124.297 345.515 118.391C339.609 112.484 339.412 107.759 344.728 100.869C350.044 94.175 356.934 94.175 362.25 101.066Z" fill="black"/>
<path d="M14.9625 87.4812C14.5688 88.2687 12.9938 96.1437 11.6156 105.2C9.45 120.162 8.85938 121.344 4.52813 121.344C0.39375 121.344 0 122.131 0 132.172C0 142.409 0.196875 143 4.92188 143C8.85938 143 9.84375 142.016 9.84375 138.078C9.84375 133.156 10.0406 133.156 27.5625 133.156C45.0844 133.156 45.2812 133.156 45.2812 138.078C45.2812 142.212 46.2656 143 51.1875 143C57.0938 143 57.0938 142.803 57.0938 132.172C57.0938 121.934 56.8969 121.344 52.1719 121.344C47.25 121.344 47.25 121.147 47.25 103.625V85.9062H31.6969C23.0344 85.9062 15.5531 86.4969 14.9625 87.4812ZM37.4062 109.728V121.344H28.35C20.8688 121.344 19.4906 120.753 20.2781 117.8C20.8688 116.028 21.8531 110.909 22.6406 106.578C24.4125 96.3406 24.4125 96.3406 31.5 97.325C37.4062 98.1125 37.4062 98.3094 37.4062 109.728Z" fill="#28E1B9"/>
<path d="M70.4815 88.8594C67.5283 90.6313 63.9846 95.1594 62.0158 100.278C59.2596 107.366 59.2596 109.728 61.4252 116.422C66.7408 132.566 86.6252 138.472 98.8315 127.447L105.131 121.934L100.603 119.572C96.8627 117.603 95.4846 117.603 92.7283 120.163C87.8065 124.691 79.5377 124.1 74.419 118.784L69.8908 114.453L88.3971 113.863L106.903 113.272L105.722 105.003C103.556 88.8594 85.6408 80.7875 70.4815 88.8594ZM92.1377 98.1125C96.469 102.444 94.6971 103.625 83.6721 103.625C77.7658 103.625 72.844 102.838 72.844 102.05C72.844 96.3406 87.4127 93.3875 92.1377 98.1125Z" fill="black"/>
<path d="M121.078 88.2688C120.684 89.6469 119.503 96.9313 118.322 104.609C116.747 114.847 115.172 119.178 112.219 121.147C108.084 123.903 106.903 130.203 110.447 132.172C113.991 134.534 123.638 129.022 125.803 123.706C126.788 120.753 128.363 113.666 128.953 107.956C130.331 98.3094 130.528 97.7188 136.041 97.7188H141.75V115.634V133.353L147.263 132.763L152.578 132.172L153.169 108.941L153.759 85.9063H137.813C126.788 85.9063 121.669 86.6938 121.078 88.2688Z" fill="black"/>
<path d="M165.375 109.531V133.156H171.084C176.006 133.156 177.975 131.187 186.244 117.8L195.891 102.641L196.481 117.8C197.072 132.566 197.269 133.156 201.797 133.156H206.719V109.334V85.7094L200.419 86.3C195.103 86.8906 192.938 88.8594 185.259 101.459L176.203 116.225L175.613 101.066C175.022 86.4969 174.825 85.9062 170.297 85.9062H165.375V109.531Z" fill="black"/>
<path d="M218.926 108.941L219.516 132.172L225.029 132.763L230.738 133.353L229.951 118.588C229.557 110.319 229.754 103.625 230.344 103.625C230.935 103.625 232.904 107.563 234.873 112.484C238.023 120.163 239.401 121.344 244.323 121.344C249.048 121.344 250.819 119.769 254.757 111.894L259.679 102.641L259.876 117.8C259.876 132.763 260.073 133.156 264.798 133.156H269.719V109.531V85.9063H263.223C257.316 85.9063 256.332 86.8906 250.819 98.1125L244.716 110.516L238.416 98.1125C232.707 86.6938 231.919 85.9063 225.423 85.9063H218.335L218.926 108.941Z" fill="black"/>
<path d="M284.288 92.6001C278.775 98.1126 277.594 100.869 277.594 107.366C277.594 111.894 278.972 118.194 280.547 121.344C286.847 133.55 304.369 136.897 314.803 128.038C332.128 113.666 322.284 85.9063 299.841 85.9063C292.359 85.9063 289.997 86.8907 284.288 92.6001ZM309.094 99.6876C314.409 105.003 314.016 112.681 308.109 118.391C302.4 124.297 299.25 124.494 293.147 119.769C284.288 112.484 289.997 95.7501 301.416 95.7501C303.384 95.7501 306.928 97.5219 309.094 99.6876Z" fill="black"/>
<path d="M383.906 109.531V133.156H389.813C395.128 133.156 396.9 131.384 405.169 118.588C410.288 110.516 414.816 103.822 415.406 103.822C415.997 103.625 416.391 110.122 416.391 117.8C416.391 131.975 416.391 132.172 421.903 132.763L427.219 133.353V109.728V85.9063H420.722C415.013 85.9063 413.634 87.0875 405.563 100.672C400.641 108.744 396.309 115.438 395.719 115.438C395.128 115.438 394.931 108.744 395.325 100.672L396.113 85.9063H390.009H383.906V109.531Z" fill="black"/>
<path d="M443.362 101.853C440.803 119.375 440.015 121.344 435.881 121.344C434.109 121.344 433.125 123.509 433.125 127.25C433.125 134.338 437.85 135.125 445.528 129.219C450.45 125.281 451.237 122.919 453.797 105.988C454.978 98.5063 455.569 97.7188 460.884 97.7188H466.594V115.634V133.353L472.106 132.763L477.422 132.172L478.012 108.941L478.603 85.9063H462.065H445.528L443.362 101.853Z" fill="black"/>
<path d="M488.643 108.941L489.234 132.172L501.047 132.763C514.237 133.156 520.34 130.794 526.247 122.919C530.184 117.603 530.184 117.209 527.034 110.516C523.49 102.838 517.387 99.6876 506.756 99.6876C500.456 99.6876 500.062 99.2938 500.062 92.797C500.062 86.497 499.668 85.9063 494.156 85.9063H488.053L488.643 108.941ZM513.45 111.303C515.025 112.288 515.812 114.65 515.418 116.619C515.025 119.375 512.859 120.556 507.347 120.95C500.456 121.541 500.062 121.344 500.062 115.634C500.062 110.319 500.653 109.531 505.575 109.531C508.528 109.531 512.072 110.319 513.45 111.303Z" fill="black"/>
<path d="M95.7965 77.375C91.875 60.1271 87.9535 50.8398 99.718 46.8596C111.482 42.8793 123.247 37.5722 163.769 36.2455C204.291 34.9187 204.291 -4.88403 306.25 4.40328C408.209 13.6906 347.519 38.6277 436.406 41.2812" stroke="black" stroke-width="5" stroke-linecap="round"/>
<rect x="434.157" y="46.75" width="5.59595" height="17.5" rx="2.79798" transform="rotate(10.5996 434.157 46.75)" fill="#FF0000"/>
<rect x="124.039" y="46.8066" width="5.59595" height="26.5984" rx="2.79798" transform="rotate(75.2018 124.039 46.8066)" fill="black"/>
<rect x="98.2596" y="53.6346" width="5.59595" height="15.9779" rx="2.79798" transform="rotate(-11.9746 98.2596 53.6346)" fill="black"/>
</svg>
