<svg width="61" height="61" viewBox="0 0 61 61" fill="none" xmlns="http://www.w3.org/2000/svg">
<circle opacity="0.1" cx="30.5" cy="30.5" r="30.5" fill="#00BE9C"/>
<path d="M33.2547 46.0931C37.4079 42.4379 44.797 34.9702 44.797 28.1172C44.797 24.3254 43.2907 20.689 40.6095 18.0078C37.9284 15.3266 34.2919 13.8203 30.5001 13.8203C26.7084 13.8203 23.0719 15.3266 20.3907 18.0078C17.7095 20.689 16.2032 24.3254 16.2032 28.1172C16.2032 34.9702 23.59 42.4379 27.7456 46.0931C28.5036 46.7697 29.4841 47.1436 30.5001 47.1436C31.5162 47.1436 32.4967 46.7697 33.2547 46.0931ZM25.7345 28.1172C25.7345 26.8533 26.2366 25.6411 27.1303 24.7474C28.024 23.8537 29.2362 23.3516 30.5001 23.3516C31.764 23.3516 32.9762 23.8537 33.8699 24.7474C34.7637 25.6411 35.2657 26.8533 35.2657 28.1172C35.2657 29.3811 34.7637 30.5933 33.8699 31.487C32.9762 32.3807 31.764 32.8828 30.5001 32.8828C29.2362 32.8828 28.024 32.3807 27.1303 31.487C26.2366 30.5933 25.7345 29.3811 25.7345 28.1172Z" fill="#28E1B9"/>
</svg>
