<svg width="18" height="15" viewBox="0 0 18 15" fill="none" xmlns="http://www.w3.org/2000/svg">
<path fill-rule="evenodd" clip-rule="evenodd" d="M1.66866 6.52691C6.23205 4.55119 9.27503 3.24867 10.7976 2.61936C15.1448 0.822542 16.0481 0.510416 16.6369 0.50011C16.7664 0.497843 17.0559 0.529734 17.2435 0.680964C17.4018 0.80866 17.4454 0.981158 17.4663 1.10223C17.4871 1.2233 17.5131 1.4991 17.4924 1.7146C17.2569 4.1743 16.2375 10.1433 15.7189 12.8983C15.4995 14.064 15.0674 14.4548 14.6492 14.4931C13.7401 14.5762 13.0498 13.8961 12.1694 13.3225C10.7916 12.4251 10.0133 11.8664 8.67597 10.9907C7.13045 9.97859 8.13235 9.42233 9.01313 8.51324C9.24364 8.27533 13.2489 4.65509 13.3264 4.32668C13.3361 4.2856 13.3451 4.1325 13.2536 4.05166C13.1621 3.97081 13.027 3.99846 12.9295 4.02045C12.7913 4.05161 10.5904 5.49723 6.32663 8.3573C5.7019 8.7836 5.13604 8.99131 4.62904 8.98042C4.07012 8.96842 2.99499 8.66638 2.19573 8.40821C1.21541 8.09154 0.436273 7.92412 0.504118 7.38633C0.539456 7.10621 0.927637 6.81974 1.66866 6.52691Z" fill="black"/>
</svg>
